<?xml version="1.0" encoding="UTF-8" standalone="no"?>
<!-- Created with Inkscape (http://www.inkscape.org/) -->

<svg
   xmlns:dc="http://purl.org/dc/elements/1.1/"
   xmlns:cc="http://creativecommons.org/ns#"
   xmlns:rdf="http://www.w3.org/1999/02/22-rdf-syntax-ns#"
   xmlns:svg="http://www.w3.org/2000/svg"
   xmlns="http://www.w3.org/2000/svg"
   xmlns:sodipodi="http://sodipodi.sourceforge.net/DTD/sodipodi-0.dtd"
   xmlns:inkscape="http://www.inkscape.org/namespaces/inkscape"
   width="343pt"
   height="340pt"
   id="svg3254"
   version="1.1"
   inkscape:version="0.48.1 "
   sodipodi:docname="Retro_flower_9_black_white_line_art_coloring_book_colouring.svg">
  <defs
     id="defs3256" />
  <sodipodi:namedview
     pagecolor="#ffffff"
     bordercolor="#666666"
     borderopacity="1.0"
     inkscape:pageopacity="0.0"
     inkscape:pageshadow="2"
     inkscape:zoom="0.8"
     inkscape:cx="-192.5"
     inkscape:cy="210"
     inkscape:document-units="pt"
     inkscape:current-layer="layer1"
     id="namedview3258"
     showgrid="false"
     inkscape:window-width="1316"
     inkscape:window-height="730"
     inkscape:window-x="225"
     inkscape:window-y="225"
     inkscape:window-maximized="0" />
  <metadata
     id="metadata3260">
    <rdf:RDF>
      <cc:Work
         rdf:about="">
        <dc:format>image/svg+xml</dc:format>
        <dc:type
           rdf:resource="http://purl.org/dc/dcmitype/StillImage" />
        <dc:title />
      </cc:Work>
    </rdf:RDF>
  </metadata>
  <g
     inkscape:label="Layer 1"
     inkscape:groupmode="layer"
     id="layer1">
    <path
       style="fill:#527a7a;"
       inkscape:connector-curvature="0"
       id="path22"
       d="m 6.53241,179.78077 c 0,-5.85142 0.965021,-11.99437 3.047029,-18.40231 9.301435,-28.62716 33.520959,-39.85931 60.389615,-39.85931 11.857103,0 24.230507,2.18755 36.065216,6.03306 21.06095,6.84338 39.13441,16.5063 53.80774,27.28187 -5.71374,-17.2847 -9.31914,-37.45985 -9.31914,-59.604834 0,-40.6406 18.59307,-81.2812 61.97692,-81.2812 43.38384,0 61.97691,40.6406 61.97691,81.2812 0,22.144984 -3.6054,42.320134 -9.31914,59.604834 14.67333,-10.77557 32.74679,-20.43849 53.80774,-27.28187 11.83471,-3.84551 24.20811,-6.03306 36.06563,-6.03306 26.86841,0 51.08731,11.23257 60.38903,39.85931 2.08221,6.40836 3.04763,12.55089 3.04763,18.40231 0,31.82532 -28.55044,55.05018 -61.19852,65.65821 -20.72505,6.7339 -40.71442,9.55842 -58.69374,9.55842 l -0.87336,-0.003 c 14.7824,10.62544 29.55733,24.82809 42.57394,42.74354 12.59153,17.33073 21.00372,37.6983 21.00372,56.82012 0,17.15531 -6.77081,33.30805 -23.36834,45.36694 -10.68226,7.76107 -21.7195,11.12681 -32.57925,11.12681 -24.82228,0 -48.71937,-17.58345 -65.33682,-40.45564 -13.0166,-17.91587 -21.95836,-36.35675 -27.49543,-53.69867 -5.53708,17.34192 -14.47884,35.7828 -27.49544,53.69867 -16.61745,22.87219 -40.51454,40.45564 -65.33682,40.45564 -10.85975,0 -21.896988,-3.36574 -32.579245,-11.12681 C 70.490747,387.86625 63.71994,371.71351 63.71994,354.5582 c 0,-19.12181 8.412189,-39.48939 21.003726,-56.82012 13.016603,-17.91545 27.791534,-32.1181 42.573934,-42.74354 l -0.87336,0.003 c -17.97932,0 -37.968689,-2.82452 -58.693736,-9.55842 C 35.081716,234.83095 6.53241,211.60692 6.53241,179.78077 z m 174.47091,47.53043 c 0,17.395 14.10146,31.49646 31.49647,31.49646 17.395,0 31.49646,-14.10146 31.49646,-31.49646 0,-17.39501 -14.10146,-31.49647 -31.49646,-31.49647 -17.39501,0 -31.49647,14.10146 -31.49647,31.49647 z" />
  </g>
</svg>
